<svg width="20" height="19" viewBox="0 0 20 19" fill="none" xmlns="http://www.w3.org/2000/svg">
<path d="M19.3962 7.00309C18.6439 5.7712 17.695 4.67081 16.587 3.74559L18.9204 1.41226C19.0722 1.25509 19.1562 1.04459 19.1543 0.826092C19.1524 0.607595 19.0647 0.398584 18.9102 0.244078C18.7557 0.089571 18.5467 0.00193018 18.3282 3.15022e-05C18.1097 -0.00186718 17.8992 0.0821282 17.742 0.233927L15.2045 2.77476C13.6315 1.84044 11.8332 1.35348 10.0037 1.36643C4.84454 1.36643 1.90454 4.89809 0.611205 7.00309C0.211645 7.64935 0 8.39413 0 9.15393C0 9.91372 0.211645 10.6585 0.611205 11.3048C1.3635 12.5367 2.31245 13.637 3.42037 14.5623L1.08704 16.8956C1.00745 16.9725 0.943961 17.0644 0.900287 17.1661C0.856613 17.2678 0.833624 17.3771 0.832663 17.4878C0.831701 17.5984 0.852786 17.7081 0.894687 17.8106C0.936588 17.913 0.998465 18.006 1.07671 18.0843C1.15495 18.1625 1.248 18.2244 1.35041 18.2663C1.45282 18.3082 1.56256 18.3293 1.67321 18.3283C1.78386 18.3273 1.89321 18.3044 1.99488 18.2607C2.09655 18.217 2.1885 18.1535 2.26537 18.0739L4.8087 15.5306C6.37976 16.4648 8.17593 16.9526 10.0037 16.9414C15.1629 16.9414 18.1029 13.4098 19.3962 11.3048C19.7958 10.6585 20.0074 9.91372 20.0074 9.15393C20.0074 8.39413 19.7958 7.64935 19.3962 7.00309ZM2.0312 10.4323C1.79382 10.0481 1.66808 9.60549 1.66808 9.15393C1.66808 8.70236 1.79382 8.25972 2.0312 7.87559C3.14287 6.07059 5.65537 3.03309 10.0037 3.03309C11.3873 3.02534 12.7514 3.35879 13.9754 4.00393L12.2979 5.68143C11.4978 5.15026 10.5386 4.91226 9.58307 5.0078C8.6275 5.10334 7.73443 5.52654 7.05537 6.2056C6.37632 6.88465 5.95312 7.77772 5.85758 8.73329C5.76203 9.68885 6.00004 10.648 6.5312 11.4481L4.6062 13.3731C3.58546 12.5479 2.7144 11.5531 2.0312 10.4323ZM12.5037 9.15393C12.5037 9.81697 12.2403 10.4529 11.7715 10.9217C11.3026 11.3905 10.6667 11.6539 10.0037 11.6539C9.63247 11.6525 9.26637 11.567 8.93287 11.4039L12.2537 8.08309C12.4168 8.41659 12.5023 8.78269 12.5037 9.15393ZM7.50371 9.15393C7.50371 8.49088 7.7671 7.855 8.23594 7.38616C8.70478 6.91732 9.34066 6.65393 10.0037 6.65393C10.3749 6.65536 10.741 6.74083 11.0745 6.90393L7.75371 10.2248C7.59061 9.89126 7.50514 9.52517 7.50371 9.15393ZM17.9762 10.4323C16.8645 12.2373 14.352 15.2748 10.0037 15.2748C8.62014 15.2825 7.25601 14.9491 6.03204 14.3039L7.70954 12.6264C8.50959 13.1576 9.46878 13.3956 10.4243 13.3001C11.3799 13.2045 12.273 12.7813 12.952 12.1023C13.6311 11.4232 14.0543 10.5301 14.1498 9.57457C14.2454 8.619 14.0074 7.65982 13.4762 6.85976L15.4012 4.93476C16.422 5.75999 17.293 6.7548 17.9762 7.87559C18.2136 8.25972 18.3393 8.70236 18.3393 9.15393C18.3393 9.60549 18.2136 10.0481 17.9762 10.4323Z" fill="#575757"/>
</svg>
