<svg width="20" height="20" viewBox="0 0 20 20" fill="none" xmlns="http://www.w3.org/2000/svg">
<g clip-path="url(#clip0_569_6070)">
<path d="M19.3925 7.84916C18.1 5.74416 15.16 2.21249 10 2.21249C4.84004 2.21249 1.90004 5.74416 0.607543 7.84916C0.207983 8.49542 -0.00366211 9.2402 -0.00366211 9.99999C-0.00366211 10.7598 0.207983 11.5046 0.607543 12.1508C1.90004 14.2558 4.84004 17.7875 10 17.7875C15.16 17.7875 18.1 14.2558 19.3925 12.1508C19.7921 11.5046 20.0037 10.7598 20.0037 9.99999C20.0037 9.2402 19.7921 8.49542 19.3925 7.84916ZM17.9717 11.2783C16.8617 13.0833 14.3492 16.1208 10 16.1208C5.65088 16.1208 3.13838 13.0833 2.02838 11.2783C1.79099 10.8942 1.66525 10.4516 1.66525 9.99999C1.66525 9.54843 1.79099 9.10579 2.02838 8.72166C3.13838 6.91666 5.65088 3.87916 10 3.87916C14.3492 3.87916 16.8617 6.91333 17.9717 8.72166C18.2091 9.10579 18.3348 9.54843 18.3348 9.99999C18.3348 10.4516 18.2091 10.8942 17.9717 11.2783Z" fill="#575757"/>
<path d="M10 5.83333C9.17595 5.83333 8.37037 6.0777 7.68517 6.53554C6.99996 6.99338 6.46591 7.64412 6.15054 8.40548C5.83518 9.16684 5.75267 10.0046 5.91344 10.8129C6.07421 11.6211 6.47105 12.3636 7.05376 12.9463C7.63648 13.529 8.37891 13.9258 9.18717 14.0866C9.99542 14.2474 10.8332 14.1649 11.5946 13.8495C12.3559 13.5341 13.0067 13.0001 13.4645 12.3149C13.9223 11.6297 14.1667 10.8241 14.1667 10C14.1654 8.89533 13.726 7.83629 12.9449 7.05518C12.1637 6.27406 11.1047 5.83465 10 5.83333ZM10 12.5C9.50559 12.5 9.02224 12.3534 8.61112 12.0787C8.19999 11.804 7.87956 11.4135 7.69034 10.9567C7.50112 10.4999 7.45162 9.99722 7.54808 9.51227C7.64454 9.02732 7.88264 8.58186 8.23228 8.23223C8.58191 7.8826 9.02736 7.64449 9.51232 7.54803C9.99727 7.45157 10.4999 7.50108 10.9568 7.6903C11.4136 7.87951 11.804 8.19995 12.0787 8.61107C12.3534 9.02219 12.5 9.50554 12.5 10C12.5 10.663 12.2367 11.2989 11.7678 11.7678C11.299 12.2366 10.6631 12.5 10 12.5Z" fill="#575757"/>
</g>
<defs>
<clipPath id="clip0_569_6070">
<rect width="20" height="20" fill="white"/>
</clipPath>
</defs>
</svg>
