<svg width="20" height="20" viewBox="0 0 20 20" fill="none" xmlns="http://www.w3.org/2000/svg">
<path d="M15.8333 7.02V5.83332C15.8333 2.61168 13.2216 0 9.99995 0C6.77827 0 4.16663 2.61168 4.16663 5.83332V7.02C2.64999 7.68191 1.66881 9.17855 1.66663 10.8333V15.8333C1.66936 18.1334 3.53323 19.9973 5.83327 20H14.1666C16.4666 19.9973 18.3305 18.1334 18.3333 15.8333V10.8333C18.3311 9.17855 17.3499 7.68191 15.8333 7.02ZM10.8333 14.1667C10.8333 14.6269 10.4602 15 9.99995 15C9.53971 15 9.16663 14.6269 9.16663 14.1667V12.5C9.16663 12.0398 9.53971 11.6667 9.99995 11.6667C10.4602 11.6667 10.8333 12.0398 10.8333 12.5V14.1667ZM14.1666 6.66668H5.83327V5.83336C5.83327 3.53219 7.69874 1.66668 9.99995 1.66668C12.3012 1.66668 14.1666 3.53215 14.1666 5.83336V6.66668Z" fill="#575757"/>
</svg>
