<svg width="52" height="52" viewBox="0 0 52 52" fill="none" xmlns="http://www.w3.org/2000/svg">
<path d="M12.4212 25.6513C12.5165 25.6922 12.5913 25.7536 12.6456 25.8354C12.7 25.9172 12.7272 26.0058 12.7272 26.1012V27.9211C12.7272 28.1393 12.6252 28.2892 12.4212 28.371L4.81289 31.6019C4.64971 31.6701 4.50012 31.6769 4.36414 31.6224C4.22816 31.5542 4.16016 31.4247 4.16016 31.2339V28.7595C4.16016 28.5551 4.26215 28.4119 4.46612 28.3301L7.66857 27.1441C7.76377 27.1032 7.81135 27.0555 7.81135 27.001C7.81135 26.9465 7.76377 26.8987 7.66857 26.8578L4.46612 25.6718C4.26215 25.59 4.16016 25.4469 4.16016 25.2423V22.7681C4.16016 22.6045 4.22816 22.4886 4.36414 22.4205C4.50012 22.3387 4.64971 22.3318 4.81289 22.4L12.4212 25.6513Z" fill="url(#paint0_linear_222_706)"/>
<path d="M16.3534 34.4247C16.2039 34.4247 16.0951 34.3701 16.0271 34.261C15.9727 34.152 15.9727 34.0157 16.0271 33.8521L21.3305 17.7794C21.3985 17.5748 21.5277 17.4727 21.7181 17.4727H23.9618C24.1114 17.4727 24.2134 17.5272 24.2678 17.6362C24.3358 17.7453 24.3426 17.8816 24.2882 18.0452L18.9848 34.1179C18.9168 34.3224 18.774 34.4247 18.5564 34.4247H16.3534Z" fill="url(#paint1_linear_222_706)"/>
<path d="M27.5684 34.4247C27.4188 34.4247 27.3099 34.3701 27.242 34.261C27.1876 34.152 27.1876 34.0157 27.242 33.8521L32.5454 17.7794C32.6134 17.5748 32.7425 17.4727 32.933 17.4727H35.1767C35.3263 17.4727 35.4283 17.5272 35.4827 17.6362C35.5506 17.7453 35.5575 17.8816 35.5031 18.0452L30.1997 34.1179C30.1316 34.3224 29.9889 34.4247 29.7713 34.4247H27.5684Z" fill="url(#paint2_linear_222_706)"/>
<path d="M43.6583 33.0947C42.8424 33.0947 42.1285 32.9652 41.5165 32.7061C40.9046 32.4335 40.4219 31.9836 40.0683 31.3566C39.7147 30.7295 39.5379 29.9115 39.5379 28.9027V25.8354C39.5379 25.6991 39.47 25.6309 39.334 25.6309H37.743C37.6341 25.6309 37.539 25.59 37.4574 25.5082C37.3758 25.4264 37.335 25.331 37.335 25.2219V22.7681C37.335 22.659 37.3758 22.5635 37.4574 22.4818C37.539 22.4 37.6341 22.3591 37.743 22.3591H39.334C39.402 22.3591 39.4495 22.3386 39.4768 22.2977C39.5176 22.2568 39.5379 22.2092 39.5379 22.1546V19.2918C39.5379 19.1827 39.5788 19.0873 39.6603 19.0055C39.742 18.9237 39.8371 18.8828 39.9459 18.8828H42.5976C42.7064 18.8828 42.8015 18.9237 42.8832 19.0055C42.9647 19.0873 43.0056 19.1827 43.0056 19.2918V22.1546C43.0056 22.2909 43.0736 22.3591 43.2096 22.3591H46.7791C46.888 22.3591 46.9831 22.4 47.0647 22.4818C47.1463 22.5635 47.1871 22.659 47.1871 22.7681V25.2219C47.1871 25.331 47.1463 25.4264 47.0647 25.5082C46.9831 25.59 46.888 25.6309 46.7791 25.6309H43.2096C43.1551 25.6309 43.1076 25.6513 43.0667 25.6922C43.0259 25.7195 43.0056 25.7672 43.0056 25.8354V29.1071C43.0056 29.3389 43.06 29.5161 43.1688 29.6388C43.2911 29.7616 43.4543 29.8229 43.6583 29.8229C43.8759 29.8229 44.0458 29.7616 44.1682 29.6388C44.3043 29.5025 44.3722 29.3253 44.3722 29.1071V28.0847C44.3722 27.9757 44.413 27.8803 44.4946 27.7985C44.5762 27.7167 44.6714 27.6758 44.7801 27.6758H47.4115C47.5339 27.6758 47.6358 27.7167 47.7175 27.7985C47.799 27.8803 47.8398 27.9757 47.8398 28.0847V28.9027C47.8398 29.7888 47.6494 30.5522 47.2687 31.1929C46.9016 31.8201 46.3984 32.2972 45.7592 32.6243C45.1337 32.9379 44.4334 33.0947 43.6583 33.0947Z" fill="url(#paint3_linear_222_706)"/>
<defs>
<linearGradient id="paint0_linear_222_706" x1="4.16016" y1="25.9061" x2="47.8402" y2="25.9061" gradientUnits="userSpaceOnUse">
<stop stop-color="#4775C4"/>
<stop offset="1" stop-color="#7543E0"/>
</linearGradient>
<linearGradient id="paint1_linear_222_706" x1="4.15962" y1="25.9069" x2="47.8396" y2="25.9069" gradientUnits="userSpaceOnUse">
<stop stop-color="#4775C4"/>
<stop offset="1" stop-color="#7543E0"/>
</linearGradient>
<linearGradient id="paint2_linear_222_706" x1="4.15972" y1="25.9069" x2="47.8397" y2="25.9069" gradientUnits="userSpaceOnUse">
<stop stop-color="#4775C4"/>
<stop offset="1" stop-color="#7543E0"/>
</linearGradient>
<linearGradient id="paint3_linear_222_706" x1="4.15983" y1="25.9061" x2="47.8398" y2="25.9061" gradientUnits="userSpaceOnUse">
<stop stop-color="#4775C4"/>
<stop offset="1" stop-color="#7543E0"/>
</linearGradient>
</defs>
</svg>
