<svg width="12" height="12" viewBox="0 0 12 12" fill="none" xmlns="http://www.w3.org/2000/svg">
<path d="M10.8626 -9.94385e-08C10.5355 -1.28027e-07 10.2512 0.128 10.0379 0.355367L6.0142 4.40757L1.96211 0.355367C1.74881 0.142195 1.47862 -9.19809e-07 1.15164 -9.48394e-07C0.511761 -1.00433e-06 0.0141974 0.526073 0.0141973 1.15164C0.0141973 1.47861 0.12788 1.74881 0.355369 1.9621L4.39338 5.99999L0.341173 10.0663C0.0994894 10.3081 1.26785e-07 10.5498 9.94384e-08 10.8626C4.35047e-08 11.5024 0.497563 12 1.13744 12C1.43603 12 1.67771 11.9005 1.9194 11.6588L6.0142 7.5924L10.0663 11.6445C10.2796 11.872 10.5355 11.9716 10.8626 11.9716C11.4881 11.9716 12 11.4881 12 10.8483C12 10.5355 11.872 10.2654 11.6588 10.0521L7.62084 5.99999L11.6588 1.94791C11.872 1.74881 12 1.46442 12 1.15164C12 0.526074 11.4881 -4.47478e-08 10.8626 -9.94385e-08Z" fill="white" fill-opacity="0.5"/>
</svg>
